<svg width="210" height="25" viewBox="0 0 210 25" fill="none" xmlns="http://www.w3.org/2000/svg">
<path d="M30.084 24.564C28.8893 24.564 28.208 23.7613 28.04 22.156C27.984 21.6147 27.956 21.0733 27.956 20.532C27.956 19.3373 28.124 18.068 28.46 16.724C28.8147 15.38 29.272 13.9987 29.832 12.58C30.4107 11.1613 31.0547 9.73333 31.764 8.296C32.492 6.85867 33.2293 5.45867 33.976 4.096C34.1067 3.89067 34.172 3.71333 34.172 3.564C34.172 3.43333 34.1253 3.368 34.032 3.368C33.6773 3.368 32.8093 3.97467 31.428 5.188C30.6813 5.84133 29.9813 6.54133 29.328 7.288C28.6747 8.016 28.0867 8.70667 27.564 9.36C26.8547 10.2747 26.248 11.0587 25.744 11.712C25.2587 12.3467 24.8853 12.8693 24.624 13.28C24.288 13.784 23.8773 14.4467 23.392 15.268C22.9253 16.0707 22.3747 17.0227 21.74 18.124C21.7213 18.1427 21.4693 18.7213 20.984 19.86C20.6667 20.6253 20.4053 21.008 20.2 21.008C19.8827 20.9707 19.5933 20.84 19.332 20.616C19.0893 20.4107 18.9867 20.1773 19.024 19.916C19.1173 19.1133 19.3693 18.0773 19.78 16.808C20.1907 15.5387 20.7693 14.0267 21.516 12.272C22.916 8.912 23.616 7.064 23.616 6.728C23.616 6.48533 23.4293 6.364 23.056 6.364C21.6933 6.364 19.444 8.22133 16.308 11.936C13.1907 15.6507 11.492 18.3573 11.212 20.056C11.1747 20.3173 11.0253 20.532 10.764 20.7C10.5027 20.868 10.232 20.952 9.952 20.952C9.65333 20.952 9.504 20.8493 9.504 20.644C9.504 19.468 10.4187 16.976 12.248 13.168C13.6107 10.368 14.4133 8.67867 14.656 8.1C15.0293 7.18533 15.328 6.35467 15.552 5.608C15.776 4.84267 15.888 4.22667 15.888 3.76C15.888 3.21867 15.7573 2.87333 15.496 2.724C15.2347 2.57467 14.8053 2.5 14.208 2.5C12.36 2.5 10.1947 3.07867 7.712 4.236C6.96533 4.59067 6.26533 5.00133 5.612 5.468C4.95867 5.93467 4.34267 6.46667 3.764 7.064C2.532 8.352 1.916 9.51867 1.916 10.564C1.916 10.9187 1.96267 11.2453 2.056 11.544C2.14933 11.824 2.336 12.076 2.616 12.3C2.84 12.4867 3.16667 12.636 3.596 12.748C4.044 12.8413 4.52933 12.888 5.052 12.888C5.87333 12.888 6.71333 12.776 7.572 12.552C7.60933 12.5333 7.66533 12.524 7.74 12.524C7.81467 12.524 7.852 12.552 7.852 12.608C7.852 12.7573 7.70267 12.916 7.404 13.084C7.10533 13.2333 6.72267 13.364 6.256 13.476C5.808 13.588 5.332 13.644 4.828 13.644C3.876 13.644 2.98 13.4853 2.14 13.168C1.16933 12.8133 0.684 12.0853 0.684 10.984C0.684 10.144 0.954667 9.25733 1.496 8.324C1.98133 7.50267 2.79333 6.644 3.932 5.748C4.58533 5.244 5.36933 4.74933 6.284 4.264C7.21733 3.76 8.19733 3.312 9.224 2.92C10.2693 2.528 11.296 2.22 12.304 1.996C13.3307 1.75333 14.264 1.632 15.104 1.632C16.7093 1.632 17.512 2.22933 17.512 3.424C17.512 4.02133 17.2787 4.92667 16.812 6.14C16.3453 7.35333 15.7013 8.81867 14.88 10.536C14.3013 11.7493 13.7413 12.9533 13.2 14.148C12.6587 15.324 12.0893 16.5187 11.492 17.732C11.5107 17.7693 12.4813 16.3507 14.404 13.476C14.8893 12.7667 15.468 12.0107 16.14 11.208C16.8307 10.3867 17.6333 9.53733 18.548 8.66C20.2093 7.05467 21.4787 6.00933 22.356 5.524C22.86 5.244 23.364 5.104 23.868 5.104C24.6333 5.104 25.016 5.496 25.016 6.28C25.016 6.56 24.9787 6.84 24.904 7.12C24.4373 8.25867 23.8867 9.65867 23.252 11.32C22.6173 12.9627 21.8893 14.876 21.068 17.06C21.0307 17.172 21.012 17.2467 21.012 17.284C21.012 17.3027 21.0213 17.312 21.04 17.312C21.1333 17.312 21.8613 16.2387 23.224 14.092C23.9893 12.86 24.6427 11.8427 25.184 11.04C25.744 10.2187 26.1827 9.62133 26.5 9.248C29.0947 6.03733 31.2133 3.82533 32.856 2.612C33.528 2.108 34.3587 1.856 35.348 1.856C36.188 1.856 36.608 2.11733 36.608 2.64C36.608 3.032 36.3653 3.52667 35.88 4.124C34.1067 6.364 32.5293 9.388 31.148 13.196C30.5133 14.9693 30.0093 16.5 29.636 17.788C29.2813 19.0573 29.104 20.2333 29.104 21.316C29.104 22.2867 29.1973 22.94 29.384 23.276C29.5893 23.612 29.8787 23.78 30.252 23.78C30.5133 23.78 30.7933 23.7333 31.092 23.64C31.4093 23.5653 31.7547 23.4627 32.128 23.332C32.2027 23.3133 32.2587 23.2947 32.296 23.276C32.352 23.276 32.3987 23.276 32.436 23.276C32.5293 23.276 32.576 23.304 32.576 23.36C32.576 23.5467 32.3053 23.78 31.764 24.06C31.1853 24.396 30.6253 24.564 30.084 24.564ZM39.7267 20.308C39.3534 20.308 39.0081 20.1867 38.6907 19.944C38.3921 19.7013 38.2147 19.468 38.1587 19.244C38.1027 18.9827 38.4481 18.0493 39.1947 16.444L38.5507 17.368C38.2707 17.7787 37.9907 18.1427 37.7107 18.46C37.4307 18.7773 37.1694 19.0573 36.9267 19.3C36.2174 19.972 35.6201 20.252 35.1347 20.14C34.0147 19.8787 33.4547 19.244 33.4547 18.236C33.4547 17.4333 33.8374 16.4067 34.6027 15.156C34.8454 14.7827 35.1534 14.4093 35.5267 14.036C35.9001 13.6627 36.3294 13.2987 36.8147 12.944C38.0654 12.0293 39.2694 11.572 40.4267 11.572C41.1361 11.572 41.8081 11.7587 42.4427 12.132C42.6481 12.2813 42.7507 12.44 42.7507 12.608C42.7507 12.7387 42.7134 12.804 42.6387 12.804C42.6201 12.804 42.6014 12.7947 42.5827 12.776C42.1907 12.3467 41.6681 12.132 41.0147 12.132C40.2494 12.132 39.4187 12.4213 38.5227 13C37.6267 13.5787 36.8241 14.3533 36.1147 15.324C35.1067 16.724 34.6027 17.8627 34.6027 18.74C34.6027 19.244 34.7801 19.5613 35.1347 19.692C35.5827 19.8787 36.5347 19.048 37.9907 17.2C38.5881 16.472 39.0827 15.8187 39.4747 15.24C39.8854 14.6613 40.2121 14.1667 40.4547 13.756C40.5667 13.5507 40.7721 13.448 41.0707 13.448C41.6307 13.448 41.9107 13.616 41.9107 13.952C41.9107 14.008 41.9014 14.0453 41.8827 14.064C40.2587 16.64 39.4467 18.3853 39.4467 19.3C39.4467 19.524 39.5121 19.6453 39.6427 19.664C40.0347 19.776 40.6881 19.4867 41.6027 18.796C42.7041 17.9747 43.7401 16.8827 44.7107 15.52C44.9161 15.24 45.1027 15.1 45.2707 15.1C45.3267 15.1 45.3547 15.1187 45.3547 15.156C45.3547 15.2493 45.2707 15.4267 45.1027 15.688C44.7107 16.304 44.2721 16.8827 43.7867 17.424C43.3201 17.9653 42.7974 18.4693 42.2187 18.936C41.3974 19.6267 40.7254 20.056 40.2027 20.224C40.0721 20.28 39.9134 20.308 39.7267 20.308ZM49.8166 20.308C49.4432 20.308 49.0979 20.1867 48.7806 19.944C48.4819 19.7013 48.3046 19.468 48.2486 19.244C48.1926 18.9827 48.5379 18.0493 49.2846 16.444L48.6406 17.368C48.3606 17.7787 48.0806 18.1427 47.8006 18.46C47.5206 18.7773 47.2592 19.0573 47.0166 19.3C46.3072 19.972 45.7099 20.252 45.2246 20.14C44.1046 19.8787 43.5446 19.244 43.5446 18.236C43.5446 17.4333 43.9272 16.4067 44.6926 15.156C44.9352 14.7827 45.2432 14.4093 45.6166 14.036C45.9899 13.6627 46.4192 13.2987 46.9046 12.944C48.1552 12.0293 49.3592 11.572 50.5166 11.572C51.2259 11.572 51.8979 11.7587 52.5326 12.132C52.7379 12.2813 52.8406 12.44 52.8406 12.608C52.8406 12.7387 52.8032 12.804 52.7286 12.804C52.7099 12.804 52.6912 12.7947 52.6726 12.776C52.2806 12.3467 51.7579 12.132 51.1046 12.132C50.3392 12.132 49.5086 12.4213 48.6126 13C47.7166 13.5787 46.9139 14.3533 46.2046 15.324C45.1966 16.724 44.6926 17.8627 44.6926 18.74C44.6926 19.244 44.8699 19.5613 45.2246 19.692C45.6726 19.8787 46.6246 19.048 48.0806 17.2C48.6779 16.472 49.1726 15.8187 49.5646 15.24C49.9752 14.6613 50.3019 14.1667 50.5446 13.756C50.6566 13.5507 50.8619 13.448 51.1606 13.448C51.7206 13.448 52.0006 13.616 52.0006 13.952C52.0006 14.008 51.9912 14.0453 51.9726 14.064C50.3486 16.64 49.5366 18.3853 49.5366 19.3C49.5366 19.524 49.6019 19.6453 49.7326 19.664C50.1246 19.776 50.7779 19.4867 51.6926 18.796C52.7939 17.9747 53.8299 16.8827 54.8006 15.52C55.0059 15.24 55.1926 15.1 55.3606 15.1C55.4166 15.1 55.4446 15.1187 55.4446 15.156C55.4446 15.2493 55.3606 15.4267 55.1926 15.688C54.8006 16.304 54.3619 16.8827 53.8766 17.424C53.4099 17.9653 52.8872 18.4693 52.3086 18.936C51.4872 19.6267 50.8152 20.056 50.2926 20.224C50.1619 20.28 50.0032 20.308 49.8166 20.308ZM53.7744 21.148C53.6997 21.148 53.6624 21.12 53.6624 21.064C53.6624 20.8213 54.2971 20.3733 55.5664 19.72C55.8837 19.5707 56.1731 19.4213 56.4344 19.272C56.6957 19.104 56.9197 18.9547 57.1064 18.824C58.2451 17.984 58.8144 17.256 58.8144 16.64C58.8144 16.1733 58.3571 15.94 57.4424 15.94C55.3144 15.9027 54.2504 15.436 54.2504 14.54C54.2504 14.148 54.4184 13.7747 54.7544 13.42C55.1464 12.972 55.7997 12.5427 56.7144 12.132C57.7037 11.684 58.6091 11.46 59.4304 11.46C60.1584 11.46 60.7091 11.6373 61.0824 11.992C61.2504 12.16 61.3344 12.3653 61.3344 12.608C61.3344 12.8693 61.2504 13.1027 61.0824 13.308C60.9144 13.5133 60.7277 13.616 60.5224 13.616C60.1491 13.616 59.9437 13.364 59.9064 12.86C59.9064 12.5053 59.8504 12.3 59.7384 12.244C59.6264 12.188 59.3277 12.16 58.8424 12.16C58.2264 12.16 57.5357 12.3653 56.7704 12.776C55.8557 13.2427 55.4264 13.8027 55.4824 14.456C55.5197 14.8293 56.2291 15.016 57.6104 15.016C59.4957 15.016 60.4384 15.4733 60.4384 16.388C60.4384 17.3773 59.6264 18.3667 58.0024 19.356C56.9757 19.9907 55.7251 20.5507 54.2504 21.036C54.0451 21.1107 53.8864 21.148 53.7744 21.148ZM81.3485 20.42C81.3112 20.42 81.2738 20.4013 81.2365 20.364C80.9938 20.0653 80.7045 19.7107 80.3685 19.3C80.0325 18.8707 79.6498 18.3667 79.2205 17.788C78.6792 18.1053 78.0912 18.404 77.4565 18.684C76.8218 18.964 76.1498 19.2067 75.4405 19.412C73.9658 19.86 72.6125 20.084 71.3805 20.084C69.9618 20.084 68.8698 19.7573 68.1045 19.104C67.4138 18.5253 67.0685 17.7507 67.0685 16.78C67.0685 15.828 67.3858 14.8293 68.0205 13.784C68.6738 12.7387 69.5605 11.8147 70.6805 11.012C71.1472 10.7133 71.7445 10.3213 72.4725 9.836C73.2192 9.35067 74.0872 8.78133 75.0765 8.128C75.0018 7.736 74.9458 7.36267 74.9085 7.008C74.8712 6.65333 74.8525 6.32667 74.8525 6.028C74.8525 3.43333 76.0565 1.98667 78.4645 1.688C78.5205 1.688 78.5672 1.688 78.6045 1.688C78.6605 1.66933 78.7165 1.66 78.7725 1.66C79.2578 1.66 79.6405 1.80933 79.9205 2.108C80.2005 2.388 80.3405 2.77067 80.3405 3.256C80.3405 4.096 79.9672 4.92667 79.2205 5.748C78.8098 6.196 78.3245 6.672 77.7645 7.176C77.2045 7.66133 76.5698 8.17467 75.8605 8.716C75.8978 9.29467 75.9818 9.88267 76.1125 10.48C76.5232 10.3867 76.9898 10.3027 77.5125 10.228C78.0352 10.1347 78.6232 10.06 79.2765 10.004C80.0792 9.92933 80.7045 9.87333 81.1525 9.836C81.6005 9.78 81.8618 9.74267 81.9365 9.724C82.5152 9.63067 83.0192 9.53733 83.4485 9.444C83.8778 9.35067 84.2232 9.25733 84.4845 9.164C85.8285 8.716 86.5098 8.1 86.5285 7.316C86.5285 7.036 86.6405 6.896 86.8645 6.896C87.0698 6.896 87.1725 7.15733 87.1725 7.68C87.1725 8.50133 86.3325 9.164 84.6525 9.668C83.7378 9.948 82.7018 10.172 81.5445 10.34C82.3658 10.6573 82.7765 11.3667 82.7765 12.468C82.7765 12.5987 82.7672 12.7387 82.7485 12.888C82.7485 13.0187 82.7392 13.1587 82.7205 13.308C82.5338 14.8013 81.5818 16.1547 79.8645 17.368L81.6565 19.58C81.6938 19.6547 81.7125 19.7293 81.7125 19.804C81.7125 20.2147 81.5912 20.42 81.3485 20.42ZM75.8045 7.624C78.0258 6.03733 79.2112 4.67467 79.3605 3.536V3.424C79.3605 3.2 79.2952 2.98533 79.1645 2.78C78.9778 2.444 78.6698 2.276 78.2405 2.276C78.1658 2.276 78.0912 2.28533 78.0165 2.304C77.9418 2.304 77.8672 2.31333 77.7925 2.332C77.1392 2.5 76.6258 3.13467 76.2525 4.236C75.9538 5.15067 75.8045 6.28 75.8045 7.624ZM72.5845 19.3C73.1258 19.3 73.7325 19.244 74.4045 19.132C75.9725 18.8707 77.4472 18.2453 78.8285 17.256C77.3538 15.296 76.3458 13.3733 75.8045 11.488C74.5538 12.1227 73.9285 12.9533 73.9285 13.98C73.9285 14.4467 74.1525 14.8667 74.6005 15.24C74.7872 15.408 74.8338 15.52 74.7405 15.576C74.6658 15.6133 74.6192 15.632 74.6005 15.632C74.5445 15.632 74.4605 15.5947 74.3485 15.52C74.0312 15.2587 73.7698 15.044 73.5645 14.876C73.3778 14.6893 73.2378 14.5493 73.1445 14.456C72.8458 14.1387 72.7152 13.8027 72.7525 13.448C72.9205 12.1227 73.8538 11.18 75.5525 10.62L75.4685 10.2L75.2445 9.164C74.4418 9.74267 73.2658 10.6667 71.7165 11.936C71.0818 12.496 70.5218 13.224 70.0365 14.12C69.4952 15.1093 69.2245 16.0147 69.2245 16.836C69.2245 18.4787 70.3445 19.3 72.5845 19.3ZM79.4165 16.78C80.7045 15.716 81.4512 14.5773 81.6565 13.364C81.6752 13.2147 81.6845 13.0747 81.6845 12.944C81.7032 12.8133 81.7125 12.6827 81.7125 12.552C81.7125 11.3573 81.1712 10.676 80.0885 10.508L79.1925 10.62C78.6325 10.6947 78.1098 10.788 77.6245 10.9C77.1578 10.9933 76.7285 11.1147 76.3365 11.264C76.5978 12.1413 76.9805 13.0467 77.4845 13.98C78.0072 14.8947 78.6512 15.828 79.4165 16.78ZM95.1269 22.604C94.8842 22.604 94.6416 22.5387 94.3989 22.408C94.1749 22.2773 94.0536 22.128 94.0349 21.96C94.0909 20.8213 95.4256 17.704 98.0389 12.608C100.634 7.64267 101.931 4.55333 101.931 3.34C101.931 2.108 101.175 1.492 99.6629 1.492C97.4416 1.492 94.7442 2.51867 91.5709 4.572C88.2856 6.68133 86.6429 8.576 86.6429 10.256C86.6429 11.04 87.0816 11.6747 87.9589 12.16C88.3882 12.4027 88.9576 12.524 89.6669 12.524C90.2456 12.524 90.9362 12.44 91.7389 12.272C92.1496 12.1787 92.4576 12.1133 92.6629 12.076C92.8682 12.02 92.9802 11.992 92.9989 11.992C93.0549 11.992 93.0829 12.0013 93.0829 12.02C93.0829 12.076 92.9709 12.188 92.7469 12.356C92.1682 12.8227 91.1696 13.056 89.7509 13.056C88.9482 13.056 88.1922 12.944 87.4829 12.72C86.2696 12.2907 85.6629 11.5067 85.6629 10.368C85.6629 9.62133 85.9429 8.772 86.5029 7.82C87.3242 6.42 89.1722 4.908 92.0469 3.284C95.0522 1.58533 97.6189 0.735999 99.7469 0.735999C102.08 0.735999 103.247 1.884 103.247 4.18C103.247 5.44933 102.771 7.05467 101.819 8.996C101.632 9.35067 101.259 10.032 100.699 11.04C100.139 12.0293 99.3922 13.3267 98.4589 14.932C97.7122 16.2013 97.0869 17.3587 96.5829 18.404C96.0789 19.4307 95.6869 20.336 95.4069 21.12L96.2189 20.252C96.4616 19.9907 97.1242 19.2533 98.2069 18.04C99.2896 16.8267 100.792 15.128 102.715 12.944C105.048 10.2933 106.915 8.47333 108.315 7.484C108.632 7.26 109.146 7.148 109.855 7.148C110.676 7.148 110.984 7.30667 110.779 7.624C110.032 8.81867 109.36 10.3027 108.763 12.076C108.11 14.0733 107.783 15.7347 107.783 17.06C107.783 18.6653 108.259 19.608 109.211 19.888C109.659 20.0187 110.144 20.084 110.667 20.084C113.075 20.084 115.352 18.7307 117.499 16.024C119.552 13.4667 120.579 10.9653 120.579 8.52C120.579 6.69067 119.898 5.48667 118.535 4.908C118.367 4.81467 118.199 4.75867 118.031 4.74C117.882 4.70267 117.732 4.684 117.583 4.684C117.415 4.684 117.294 4.69333 117.219 4.712C117.07 4.74933 116.995 4.712 116.995 4.6C116.995 4.39467 117.154 4.17067 117.471 3.928C117.788 3.66667 118.162 3.536 118.591 3.536C118.852 3.536 119.067 3.57333 119.235 3.648C121.008 4.24533 121.895 5.59867 121.895 7.708C121.895 8.604 121.764 9.528 121.503 10.48C121.242 11.432 120.831 12.412 120.271 13.42C119.188 15.436 117.807 17.116 116.127 18.46C114.279 19.916 112.412 20.644 110.527 20.644C110.228 20.644 109.93 20.6253 109.631 20.588C109.351 20.5507 109.062 20.4947 108.763 20.42C107.158 19.9907 106.355 18.712 106.355 16.584C106.355 14.568 107.064 12.048 108.483 9.024C108.576 8.8 108.623 8.65067 108.623 8.576C108.623 8.42667 108.576 8.352 108.483 8.352C108.427 8.352 108.352 8.38 108.259 8.436C106.971 9.164 105.002 11.152 102.351 14.4C98.8042 18.768 96.5362 21.456 95.5469 22.464C95.4536 22.5573 95.3136 22.604 95.1269 22.604ZM121.648 20.224C121.106 20.224 120.63 20.0933 120.22 19.832C119.678 19.4587 119.408 18.9173 119.408 18.208C119.408 17.4427 119.734 16.5093 120.388 15.408C121.265 13.9707 122.553 12.7107 124.252 11.628C124.681 11.348 125.11 11.208 125.54 11.208C126.1 11.208 126.501 11.3853 126.744 11.74C126.893 11.9453 126.968 12.1787 126.968 12.44C126.968 13.224 126.333 14.0827 125.064 15.016C124.69 15.2773 124.289 15.52 123.86 15.744C123.449 15.9493 123.001 16.0987 122.516 16.192L121.312 16.444C120.864 17.2467 120.64 17.9187 120.64 18.46C120.64 19.2067 121.078 19.58 121.956 19.58C122.646 19.58 123.486 19.2907 124.476 18.712C125.801 17.9467 126.94 16.8827 127.892 15.52C128.041 15.296 128.181 15.184 128.312 15.184C128.368 15.184 128.396 15.2213 128.396 15.296C128.396 15.3893 128.33 15.5293 128.2 15.716C126.389 18.4413 124.345 19.9347 122.068 20.196C121.993 20.2147 121.918 20.224 121.844 20.224C121.788 20.224 121.722 20.224 121.648 20.224ZM121.648 15.968C122.17 15.968 122.842 15.7347 123.664 15.268C124.821 14.6147 125.633 13.7747 126.1 12.748C126.23 12.4867 126.296 12.272 126.296 12.104C126.296 11.936 126.23 11.852 126.1 11.852C125.857 11.852 125.362 12.1507 124.616 12.748C124.074 13.2147 123.542 13.7187 123.02 14.26C122.516 14.7827 122.03 15.3427 121.564 15.94C121.545 15.9587 121.573 15.968 121.648 15.968ZM128.366 20.448C127.638 20.448 127.078 20.14 126.686 19.524C126.668 19.5053 126.658 19.44 126.658 19.328C126.658 18.88 126.948 17.956 127.526 16.556C127.788 15.9213 128.049 15.324 128.31 14.764C128.59 14.1853 128.87 13.6347 129.15 13.112C130.718 10.2187 132.137 7.932 133.406 6.252C133.705 5.87867 134.274 5.72933 135.114 5.804C135.301 5.82267 135.394 5.90667 135.394 6.056C135.394 6.26133 135.329 6.40133 135.198 6.476C133.668 7.652 131.624 10.7507 129.066 15.772C129.16 15.6787 129.365 15.4733 129.682 15.156C130 14.8387 130.448 14.4 131.026 13.84C132.482 12.44 133.537 11.74 134.19 11.74C134.321 11.7773 134.498 11.8147 134.722 11.852C134.946 11.8707 135.208 11.8987 135.506 11.936C135.842 11.936 136.01 12.16 136.01 12.608C136.01 13.8587 135.282 15.3427 133.826 17.06C133.08 17.9373 132.23 18.6933 131.278 19.328C130.177 20.0747 129.206 20.448 128.366 20.448ZM128.03 19.552C128.609 19.552 129.384 19.2347 130.354 18.6C130.858 18.2827 131.316 17.9373 131.726 17.564C132.137 17.1907 132.492 16.7987 132.79 16.388C134.022 14.7267 134.638 13.532 134.638 12.804C134.638 12.524 134.517 12.384 134.274 12.384C133.584 12.384 132.258 13.3453 130.298 15.268C128.469 17.1347 127.554 18.4227 127.554 19.132C127.554 19.412 127.713 19.552 128.03 19.552ZM137.726 20.224C137.185 20.224 136.709 20.0933 136.298 19.832C135.757 19.4587 135.486 18.9173 135.486 18.208C135.486 17.4427 135.813 16.5093 136.466 15.408C137.343 13.9707 138.631 12.7107 140.33 11.628C140.759 11.348 141.189 11.208 141.618 11.208C142.178 11.208 142.579 11.3853 142.822 11.74C142.971 11.9453 143.046 12.1787 143.046 12.44C143.046 13.224 142.411 14.0827 141.142 15.016C140.769 15.2773 140.367 15.52 139.938 15.744C139.527 15.9493 139.079 16.0987 138.594 16.192L137.39 16.444C136.942 17.2467 136.718 17.9187 136.718 18.46C136.718 19.2067 137.157 19.58 138.034 19.58C138.725 19.58 139.565 19.2907 140.554 18.712C141.879 17.9467 143.018 16.8827 143.97 15.52C144.119 15.296 144.259 15.184 144.39 15.184C144.446 15.184 144.474 15.2213 144.474 15.296C144.474 15.3893 144.409 15.5293 144.278 15.716C142.467 18.4413 140.423 19.9347 138.146 20.196C138.071 20.2147 137.997 20.224 137.922 20.224C137.866 20.224 137.801 20.224 137.726 20.224ZM137.726 15.968C138.249 15.968 138.921 15.7347 139.742 15.268C140.899 14.6147 141.711 13.7747 142.178 12.748C142.309 12.4867 142.374 12.272 142.374 12.104C142.374 11.936 142.309 11.852 142.178 11.852C141.935 11.852 141.441 12.1507 140.694 12.748C140.153 13.2147 139.621 13.7187 139.098 14.26C138.594 14.7827 138.109 15.3427 137.642 15.94C137.623 15.9587 137.651 15.968 137.726 15.968ZM142.429 20.336C142.167 20.336 142.037 20.252 142.037 20.084C142.037 20.0653 142.055 20 142.093 19.888C142.97 18.208 144.006 15.8093 145.201 12.692C145.331 12.356 145.555 12.0667 145.873 11.824C146.19 11.5627 146.461 11.432 146.685 11.432C146.927 11.432 147.03 11.5627 146.993 11.824C146.806 12.216 146.582 12.72 146.321 13.336C146.059 13.952 145.751 14.6707 145.397 15.492C145.919 14.8013 146.694 14.0267 147.721 13.168C148.243 12.7387 148.691 12.384 149.065 12.104C149.457 11.824 149.783 11.6187 150.045 11.488C150.306 11.3573 150.595 11.292 150.913 11.292C151.286 11.292 151.603 11.3853 151.865 11.572C152.126 11.7587 152.257 11.9733 152.257 12.216C152.257 12.3653 152.182 12.5333 152.033 12.72C151.902 12.888 151.762 12.972 151.613 12.972C151.538 12.972 151.379 12.8973 151.137 12.748C150.913 12.58 150.67 12.496 150.409 12.496C150.129 12.496 149.802 12.58 149.429 12.748C147.058 13.812 145.014 16.2107 143.297 19.944C143.185 20.2053 142.895 20.336 142.429 20.336ZM162.924 13.56C160.908 13.336 159.34 12.8973 158.22 12.244C157.231 11.628 156.736 10.8907 156.736 10.032C156.736 8.44533 158.136 6.94267 160.936 5.524C162.467 4.75867 164.175 4.152 166.06 3.704C167.945 3.23733 170.017 2.93867 172.276 2.808C172.985 2.77067 173.685 2.74267 174.376 2.724C175.085 2.70533 175.785 2.696 176.476 2.696C178.249 2.696 179.855 2.76133 181.292 2.892C182.748 3.004 184.045 3.18133 185.184 3.424C187.629 3.96533 188.852 4.712 188.852 5.664C188.852 5.90667 188.768 6.168 188.6 6.448C188.32 6.87733 188.087 7.092 187.9 7.092C187.844 7.092 187.816 7.064 187.816 7.008C187.816 6.93333 187.891 6.728 188.04 6.392C188.115 6.26133 188.152 6.14 188.152 6.028C188.152 5.20667 186.621 4.58133 183.56 4.152C182.421 4.00267 181.143 3.89067 179.724 3.816C178.305 3.74133 176.747 3.704 175.048 3.704C174.563 3.704 174.087 3.71333 173.62 3.732C173.172 3.732 172.743 3.74133 172.332 3.76C168.524 3.90933 165.192 4.70267 162.336 6.14C159.592 7.50267 158.22 8.92133 158.22 10.396C158.22 11.9267 159.881 12.8693 163.204 13.224C163.447 13.2427 163.568 13.2987 163.568 13.392C163.568 13.56 163.353 13.616 162.924 13.56ZM163.932 22.128C163.167 22.128 162.588 21.82 162.196 21.204C162.047 20.9613 161.972 20.7653 161.972 20.616C161.972 20.4667 162.037 20.392 162.168 20.392C162.28 20.392 162.551 20.6067 162.98 21.036C163.428 21.484 163.876 21.708 164.324 21.708C165.108 21.708 165.995 21.0453 166.984 19.72C167.899 18.488 169.196 16.2107 170.876 12.888C171.809 11.0213 172.556 9.584 173.116 8.576C173.676 7.54933 174.031 6.94267 174.18 6.756C174.441 6.476 174.703 6.336 174.964 6.336C175.188 6.336 175.58 6.46667 176.14 6.728C176.233 6.784 176.28 6.84933 176.28 6.924C176.28 7.036 176.215 7.13867 176.084 7.232C175.953 7.32533 175.841 7.36267 175.748 7.344C175.356 7.288 174.087 9.332 171.94 13.476C171.287 14.7453 170.652 15.8933 170.036 16.92C169.42 17.9467 168.832 18.8427 168.272 19.608C167.805 20.2613 167.143 20.8493 166.284 21.372C165.444 21.876 164.66 22.128 163.932 22.128ZM178.796 20.224C178.255 20.224 177.779 20.0933 177.368 19.832C176.827 19.4587 176.556 18.9173 176.556 18.208C176.556 17.4427 176.883 16.5093 177.536 15.408C178.413 13.9707 179.701 12.7107 181.4 11.628C181.829 11.348 182.259 11.208 182.688 11.208C183.248 11.208 183.649 11.3853 183.892 11.74C184.041 11.9453 184.116 12.1787 184.116 12.44C184.116 13.224 183.481 14.0827 182.212 15.016C181.839 15.2773 181.437 15.52 181.008 15.744C180.597 15.9493 180.149 16.0987 179.664 16.192L178.46 16.444C178.012 17.2467 177.788 17.9187 177.788 18.46C177.788 19.2067 178.227 19.58 179.104 19.58C179.795 19.58 180.635 19.2907 181.624 18.712C182.949 17.9467 184.088 16.8827 185.04 15.52C185.189 15.296 185.329 15.184 185.46 15.184C185.516 15.184 185.544 15.2213 185.544 15.296C185.544 15.3893 185.479 15.5293 185.348 15.716C183.537 18.4413 181.493 19.9347 179.216 20.196C179.141 20.2147 179.067 20.224 178.992 20.224C178.936 20.224 178.871 20.224 178.796 20.224ZM178.796 15.968C179.319 15.968 179.991 15.7347 180.812 15.268C181.969 14.6147 182.781 13.7747 183.248 12.748C183.379 12.4867 183.444 12.272 183.444 12.104C183.444 11.936 183.379 11.852 183.248 11.852C183.005 11.852 182.511 12.1507 181.764 12.748C181.223 13.2147 180.691 13.7187 180.168 14.26C179.664 14.7827 179.179 15.3427 178.712 15.94C178.693 15.9587 178.721 15.968 178.796 15.968ZM190.555 20.308C190.182 20.308 189.836 20.1867 189.519 19.944C189.22 19.7013 189.043 19.468 188.987 19.244C188.931 18.9827 189.276 18.0493 190.023 16.444L189.379 17.368C189.099 17.7787 188.819 18.1427 188.539 18.46C188.259 18.7773 187.998 19.0573 187.755 19.3C187.046 19.972 186.448 20.252 185.963 20.14C184.843 19.8787 184.283 19.244 184.283 18.236C184.283 17.4333 184.666 16.4067 185.431 15.156C185.674 14.7827 185.982 14.4093 186.355 14.036C186.728 13.6627 187.158 13.2987 187.643 12.944C188.894 12.0293 190.098 11.572 191.255 11.572C191.964 11.572 192.636 11.7587 193.271 12.132C193.476 12.2813 193.579 12.44 193.579 12.608C193.579 12.7387 193.542 12.804 193.467 12.804C193.448 12.804 193.43 12.7947 193.411 12.776C193.019 12.3467 192.496 12.132 191.843 12.132C191.078 12.132 190.247 12.4213 189.351 13C188.455 13.5787 187.652 14.3533 186.943 15.324C185.935 16.724 185.431 17.8627 185.431 18.74C185.431 19.244 185.608 19.5613 185.963 19.692C186.411 19.8787 187.363 19.048 188.819 17.2C189.416 16.472 189.911 15.8187 190.303 15.24C190.714 14.6613 191.04 14.1667 191.283 13.756C191.395 13.5507 191.6 13.448 191.899 13.448C192.459 13.448 192.739 13.616 192.739 13.952C192.739 14.008 192.73 14.0453 192.711 14.064C191.087 16.64 190.275 18.3853 190.275 19.3C190.275 19.524 190.34 19.6453 190.471 19.664C190.863 19.776 191.516 19.4867 192.431 18.796C193.532 17.9747 194.568 16.8827 195.539 15.52C195.744 15.24 195.931 15.1 196.099 15.1C196.155 15.1 196.183 15.1187 196.183 15.156C196.183 15.2493 196.099 15.4267 195.931 15.688C195.539 16.304 195.1 16.8827 194.615 17.424C194.148 17.9653 193.626 18.4693 193.047 18.936C192.226 19.6267 191.554 20.056 191.031 20.224C190.9 20.28 190.742 20.308 190.555 20.308ZM204.593 20.28C204.182 20.3173 203.79 20.2147 203.417 19.972C203.043 19.7107 202.857 19.4213 202.857 19.104C202.857 18.5253 203.407 17.4147 204.509 15.772C205.722 13.9613 206.329 12.916 206.329 12.636C206.329 12.468 206.245 12.3747 206.077 12.356C205.535 12.3933 204.807 12.8227 203.893 13.644C202.493 14.932 201.083 16.8733 199.665 19.468C199.609 19.5613 199.394 19.608 199.021 19.608C198.61 19.608 198.405 19.44 198.405 19.104C198.405 18.5253 198.955 17.4147 200.057 15.772C201.27 13.9613 201.877 12.916 201.877 12.636C201.877 12.468 201.793 12.3747 201.625 12.356C201.083 12.3933 200.243 12.9347 199.105 13.98C197.462 15.5107 195.95 17.5453 194.569 20.084C194.55 20.1213 194.503 20.1493 194.429 20.168C194.373 20.1867 194.261 20.196 194.093 20.196C193.383 20.196 193.066 20.084 193.141 19.86C193.346 19.3187 193.701 18.5067 194.205 17.424C194.727 16.3413 195.399 14.9787 196.221 13.336C196.781 12.2347 197.35 11.684 197.929 11.684C198.115 11.684 198.237 11.7307 198.293 11.824C198.33 11.88 197.938 12.6827 197.117 14.232C196.725 14.9787 196.417 15.576 196.193 16.024C195.969 16.4533 195.81 16.7333 195.717 16.864C196.034 16.5467 196.407 16.1547 196.837 15.688C197.285 15.2213 197.798 14.68 198.377 14.064C199.291 13.0373 200.299 12.272 201.401 11.768C201.625 11.6747 201.858 11.628 202.101 11.628C202.903 11.628 203.305 11.9733 203.305 12.664C203.305 13.056 203.146 13.5227 202.829 14.064C203.687 13.056 204.695 12.2907 205.853 11.768C206.114 11.656 206.413 11.6 206.749 11.6C207.514 11.6 207.897 11.88 207.897 12.44C207.897 12.7947 207.719 13.2147 207.365 13.7C205.349 16.5187 204.341 18.4133 204.341 19.384C204.341 19.5893 204.406 19.72 204.537 19.776C204.817 19.888 205.349 19.72 206.133 19.272C207.122 18.6933 208.037 17.8813 208.877 16.836C208.989 16.7053 209.101 16.64 209.213 16.64C209.287 16.64 209.325 16.668 209.325 16.724C209.325 16.7987 209.269 16.9107 209.157 17.06C208.223 18.2547 207.299 19.132 206.385 19.692C205.638 20.1587 205.041 20.3547 204.593 20.28Z" fill="#B99A45"/>
</svg>
