<svg width="131" height="27" viewBox="0 0 131 27" fill="none" xmlns="http://www.w3.org/2000/svg">
<path d="M2.864 21.548C2.136 21.4547 1.548 21.1187 1.1 20.54C0.652 19.9613 0.428 19.2427 0.428 18.384C0.428 17.04 0.950667 15.6773 1.996 14.296C2.164 14.072 2.31333 13.96 2.444 13.96C2.51867 13.96 2.556 14.0067 2.556 14.1C2.556 14.2307 2.48133 14.3987 2.332 14.604C1.548 15.6867 1.156 16.8907 1.156 18.216C1.156 18.9627 1.30533 19.5693 1.604 20.036C1.90267 20.5027 2.332 20.736 2.892 20.736C4.98267 20.7173 7.456 17.8147 10.312 12.028C10.2747 12.0093 10.2187 12 10.144 12C10.088 11.9813 10.0133 11.972 9.92 11.972C9.54667 11.9347 9.36 11.804 9.36 11.58C9.36 11.356 9.77067 11.272 10.592 11.328C10.9653 10.5627 11.348 9.732 11.74 8.836C12.1507 7.94 12.5613 6.988 12.972 5.98C13.4013 4.972 13.7187 4.216 13.924 3.712C14.148 3.208 14.26 2.956 14.26 2.956C14.3347 2.76933 14.512 2.676 14.792 2.676C15.016 2.676 15.2307 2.75067 15.436 2.9C15.66 3.04933 15.772 3.21733 15.772 3.404C15.772 3.42267 15.7533 3.488 15.716 3.6C15.4173 4.29067 14.9413 5.28933 14.288 6.596C13.6347 7.90267 12.8133 9.51733 11.824 11.44C14.176 11.552 16.36 11.104 18.376 10.096C20.2053 9.21867 21.4 8.18267 21.96 6.988C22.296 6.27867 22.464 5.62533 22.464 5.028C22.464 3.81467 21.8293 2.82533 20.56 2.06C19.5893 1.444 18.376 1.052 16.92 0.884C15.9493 0.771999 14.9787 0.715998 14.008 0.715998C10.48 0.715998 7.39067 1.42533 4.74 2.844C2.332 4.09467 1.128 5.37333 1.128 6.68C1.128 6.82933 1.16533 7.016 1.24 7.24C1.31467 7.44533 1.352 7.59467 1.352 7.688C1.352 7.76267 1.324 7.8 1.268 7.8C1.19333 7.8 1.05333 7.72533 0.848 7.576C0.362667 7.20267 0.12 6.74533 0.12 6.204C0.12 4.804 1.24933 3.50667 3.508 2.312C6.17733 0.912 9.67733 0.212 14.008 0.212C14.4933 0.212 14.9787 0.221333 15.464 0.24C15.9493 0.258666 16.444 0.286666 16.948 0.323998C18.46 0.435999 19.9347 0.884 21.372 1.668C23.1827 2.676 24.088 3.936 24.088 5.448C24.088 6.02667 23.9667 6.596 23.724 7.156C23.2387 8.332 21.904 9.38667 19.72 10.32C18.5253 10.8427 17.2467 11.244 15.884 11.524C14.5213 11.7853 13.0653 11.9347 11.516 11.972C7.85733 18.5987 4.97333 21.7907 2.864 21.548ZM26.5756 19.28C26.165 19.3173 25.773 19.2147 25.3996 18.972C25.0263 18.7107 24.8396 18.4213 24.8396 18.104C24.8396 17.5253 25.3903 16.4147 26.4916 14.772C27.705 12.9427 28.3116 11.888 28.3116 11.608C28.3116 11.44 28.2183 11.356 28.0316 11.356C27.5463 11.356 26.613 12.0747 25.2316 13.512C24.4103 14.3333 23.6356 15.22 22.9076 16.172C22.1983 17.1053 21.5263 18.0947 20.8916 19.14C20.8543 19.1773 20.7516 19.196 20.5836 19.196C19.7623 19.196 19.389 19.084 19.4636 18.86C19.781 18.0013 20.1823 17.04 20.6676 15.976C21.153 14.912 21.7316 13.7267 22.4036 12.42C24.625 8.12667 26.137 5.672 26.9396 5.056C27.1636 4.888 27.4716 4.804 27.8636 4.804C28.517 4.804 28.8436 4.93467 28.8436 5.196C28.8436 5.252 28.7876 5.32667 28.6756 5.42C26.2303 7.23067 24.065 10.6373 22.1796 15.64C22.1983 15.6213 22.2916 15.5373 22.4596 15.388C22.6463 15.22 22.9076 14.9773 23.2436 14.66C23.5983 14.3427 23.897 14.0533 24.1396 13.792C24.401 13.512 24.625 13.2693 24.8116 13.064C25.7263 12.0373 26.7343 11.272 27.8356 10.768C28.097 10.656 28.3956 10.6 28.7316 10.6C29.497 10.6 29.8796 10.88 29.8796 11.44C29.8796 11.7947 29.7023 12.2147 29.3476 12.7C27.3316 15.5187 26.3236 17.4133 26.3236 18.384C26.3236 18.5893 26.389 18.72 26.5196 18.776C26.8183 18.9067 27.5556 18.5987 28.7316 17.852C30.113 16.956 31.289 15.8453 32.2596 14.52C32.465 14.24 32.6516 14.1 32.8196 14.1C32.8756 14.1 32.9036 14.1187 32.9036 14.156C32.9036 14.2493 32.8196 14.4267 32.6516 14.688C31.8303 15.976 30.6916 17.1147 29.2356 18.104C27.929 18.9627 27.0423 19.3547 26.5756 19.28ZM36.9284 9.172C36.6297 9.20933 36.3031 9.172 35.9484 9.06C35.6124 8.948 35.4444 8.808 35.4444 8.64C35.4444 8.528 35.4817 8.416 35.5564 8.304C35.6311 8.17333 35.7244 8.04267 35.8364 7.912C36.1537 7.52 36.3404 7.27733 36.3964 7.184C36.4524 7.072 36.5551 7.016 36.7044 7.016C37.1337 7.016 37.4697 7.22133 37.7124 7.632C37.7311 7.65067 37.7404 7.688 37.7404 7.744C37.7404 7.912 37.6471 8.15467 37.4604 8.472C37.2177 8.92 37.0404 9.15333 36.9284 9.172ZM32.7004 19.28C31.6177 19.0373 31.0764 18.608 31.0764 17.992C31.0764 17.6933 31.4404 16.6387 32.1684 14.828C32.3737 14.4733 32.6444 13.96 32.9804 13.288C33.3351 12.5973 33.7737 11.7573 34.2964 10.768C34.3897 10.6187 34.5951 10.544 34.9124 10.544C35.1924 10.544 35.4631 10.5907 35.7244 10.684C36.0044 10.7587 36.1164 10.8333 36.0604 10.908C33.5964 14.3987 32.3644 16.816 32.3644 18.16C32.3644 18.552 32.4951 18.748 32.7564 18.748C33.2604 18.748 34.0537 18.3933 35.1364 17.684C36.4244 16.8067 37.5071 15.752 38.3844 14.52C38.5711 14.2213 38.7577 14.072 38.9444 14.072C39.0004 14.072 39.0284 14.1 39.0284 14.156C39.0284 14.2493 38.9444 14.4267 38.7764 14.688C37.9551 15.976 36.8164 17.1147 35.3604 18.104C34.0537 19 33.1671 19.392 32.7004 19.28ZM39.7155 19.532C38.3902 19.252 37.7275 18.636 37.7275 17.684C37.7275 17.124 37.9048 16.312 38.2595 15.248C38.5208 14.4453 38.8755 13.5307 39.3235 12.504C39.7902 11.4587 40.3688 10.3013 41.0595 9.032C42.7208 5.91467 43.9808 4.29067 44.8395 4.16C44.9142 4.14133 45.0355 4.132 45.2035 4.132C46.1182 4.132 46.5755 4.56133 46.5755 5.42C46.5755 6.596 45.5862 8.26667 43.6075 10.432C42.5062 11.664 41.2928 12.756 39.9675 13.708C39.1835 15.5747 38.7915 16.9467 38.7915 17.824C38.7915 18.4027 38.9688 18.748 39.3235 18.86C39.6035 18.9347 40.2568 18.5987 41.2835 17.852C42.4595 16.9933 43.4675 15.948 44.3075 14.716C44.4382 14.5293 44.5595 14.436 44.6715 14.436C44.7462 14.436 44.7835 14.4733 44.7835 14.548C44.7835 14.6227 44.7368 14.7347 44.6435 14.884C43.9342 16.0227 43.0102 17.1053 41.8715 18.132C40.7702 19.14 40.0515 19.6067 39.7155 19.532ZM40.2755 12.952C40.9475 12.448 41.5075 11.944 41.9555 11.44L43.6075 9.48C45.1382 7.66933 45.9035 6.33467 45.9035 5.476C45.9035 5.308 45.8102 5.224 45.6235 5.224C45.3062 5.224 44.8022 5.68133 44.1115 6.596C43.9062 6.89467 43.6915 7.184 43.4675 7.464C43.2435 7.744 43.0195 8.03333 42.7955 8.332C42.5155 8.74267 42.2542 9.144 42.0115 9.536C41.7875 9.928 41.5728 10.3293 41.3675 10.74C41.3115 10.8147 41.1902 11.0387 41.0035 11.412C40.8355 11.7853 40.5928 12.2987 40.2755 12.952ZM48.987 9.172C48.6883 9.20933 48.3617 9.172 48.007 9.06C47.671 8.948 47.503 8.808 47.503 8.64C47.503 8.528 47.5403 8.416 47.615 8.304C47.6897 8.17333 47.783 8.04267 47.895 7.912C48.2123 7.52 48.399 7.27733 48.455 7.184C48.511 7.072 48.6137 7.016 48.763 7.016C49.1923 7.016 49.5283 7.22133 49.771 7.632C49.7897 7.65067 49.799 7.688 49.799 7.744C49.799 7.912 49.7057 8.15467 49.519 8.472C49.2763 8.92 49.099 9.15333 48.987 9.172ZM44.759 19.28C43.6763 19.0373 43.135 18.608 43.135 17.992C43.135 17.6933 43.499 16.6387 44.227 14.828C44.4323 14.4733 44.703 13.96 45.039 13.288C45.3937 12.5973 45.8323 11.7573 46.355 10.768C46.4483 10.6187 46.6537 10.544 46.971 10.544C47.251 10.544 47.5217 10.5907 47.783 10.684C48.063 10.7587 48.175 10.8333 48.119 10.908C45.655 14.3987 44.423 16.816 44.423 18.16C44.423 18.552 44.5537 18.748 44.815 18.748C45.319 18.748 46.1123 18.3933 47.195 17.684C48.483 16.8067 49.5657 15.752 50.443 14.52C50.6297 14.2213 50.8163 14.072 51.003 14.072C51.059 14.072 51.087 14.1 51.087 14.156C51.087 14.2493 51.003 14.4267 50.835 14.688C50.0137 15.976 48.875 17.1147 47.419 18.104C46.1123 19 45.2257 19.392 44.759 19.28ZM48.1901 26.7C47.8914 26.7 47.6114 26.5973 47.3501 26.392C47.0514 26.1307 46.9114 25.8507 46.9301 25.552C47.0608 24.1147 47.3594 22.612 47.8261 21.044C48.2928 19.4947 48.9274 17.8707 49.7301 16.172C50.8128 13.8387 52.0728 11.6733 53.5101 9.676C53.7901 9.284 54.3408 9.13467 55.1621 9.228C55.3861 9.24667 55.4981 9.34933 55.4981 9.536C55.4981 9.68533 55.4421 9.80667 55.3301 9.9C54.2101 10.6653 53.0341 12.2987 51.8021 14.8C51.8581 14.7067 52.0354 14.5013 52.3341 14.184C52.6328 13.8667 53.0434 13.4187 53.5661 12.84C54.8914 11.44 55.8714 10.74 56.5061 10.74C56.6368 10.7773 56.8141 10.8147 57.0381 10.852C57.2621 10.8707 57.5328 10.8987 57.8501 10.936C58.2234 10.936 58.4101 11.2347 58.4101 11.832C58.4101 13.1013 57.8408 14.5107 56.7021 16.06C56.1048 16.8813 55.3301 17.6373 54.3781 18.328C53.2954 19.0747 52.3528 19.448 51.5501 19.448C50.8034 19.448 50.2434 19.112 49.8701 18.44C48.6568 20.904 48.0128 23.3493 47.9381 25.776C47.9381 25.9813 48.0688 26.1307 48.3301 26.224C48.5914 26.3173 48.6941 26.4107 48.6381 26.504C48.5634 26.6347 48.4141 26.7 48.1901 26.7ZM51.0461 18.58C51.5874 18.58 52.3528 18.2533 53.3421 17.6C53.8274 17.2827 54.2568 16.9373 54.6301 16.564C55.0034 16.1907 55.3208 15.7987 55.5821 15.388C56.5714 13.8387 57.0661 12.6813 57.0661 11.916C57.0661 11.5613 56.9261 11.384 56.6461 11.384C55.8994 11.384 54.6674 12.3453 52.9501 14.268C51.3261 16.0227 50.5141 17.292 50.5141 18.076C50.5141 18.412 50.6914 18.58 51.0461 18.58ZM56.8307 26.7C56.5321 26.7 56.2521 26.5973 55.9907 26.392C55.6921 26.1307 55.5521 25.8507 55.5707 25.552C55.7014 24.1147 56.0001 22.612 56.4667 21.044C56.9334 19.4947 57.5681 17.8707 58.3707 16.172C59.4534 13.8387 60.7134 11.6733 62.1507 9.676C62.4307 9.284 62.9814 9.13467 63.8027 9.228C64.0267 9.24667 64.1387 9.34933 64.1387 9.536C64.1387 9.68533 64.0827 9.80667 63.9707 9.9C62.8507 10.6653 61.6747 12.2987 60.4427 14.8C60.4987 14.7067 60.6761 14.5013 60.9747 14.184C61.2734 13.8667 61.6841 13.4187 62.2067 12.84C63.5321 11.44 64.5121 10.74 65.1467 10.74C65.2774 10.7773 65.4547 10.8147 65.6787 10.852C65.9027 10.8707 66.1734 10.8987 66.4907 10.936C66.8641 10.936 67.0507 11.2347 67.0507 11.832C67.0507 13.1013 66.4814 14.5107 65.3427 16.06C64.7454 16.8813 63.9707 17.6373 63.0187 18.328C61.9361 19.0747 60.9934 19.448 60.1907 19.448C59.4441 19.448 58.8841 19.112 58.5107 18.44C57.2974 20.904 56.6534 23.3493 56.5787 25.776C56.5787 25.9813 56.7094 26.1307 56.9707 26.224C57.2321 26.3173 57.3347 26.4107 57.2787 26.504C57.2041 26.6347 57.0547 26.7 56.8307 26.7ZM59.6867 18.58C60.2281 18.58 60.9934 18.2533 61.9827 17.6C62.4681 17.2827 62.8974 16.9373 63.2707 16.564C63.6441 16.1907 63.9614 15.7987 64.2227 15.388C65.2121 13.8387 65.7067 12.6813 65.7067 11.916C65.7067 11.5613 65.5667 11.384 65.2867 11.384C64.5401 11.384 63.3081 12.3453 61.5907 14.268C59.9667 16.0227 59.1547 17.292 59.1547 18.076C59.1547 18.412 59.3321 18.58 59.6867 18.58ZM98.9434 23.564C97.7487 23.564 97.0674 22.7613 96.8994 21.156C96.8434 20.6147 96.8154 20.0733 96.8154 19.532C96.8154 18.3373 96.9834 17.068 97.3194 15.724C97.674 14.38 98.1314 12.9987 98.6914 11.58C99.27 10.1613 99.914 8.73333 100.623 7.296C101.351 5.85867 102.089 4.45867 102.835 3.096C102.966 2.89067 103.031 2.71333 103.031 2.564C103.031 2.43333 102.985 2.368 102.891 2.368C102.537 2.368 101.669 2.97467 100.287 4.188C99.5407 4.84133 98.8407 5.54133 98.1874 6.288C97.534 7.016 96.946 7.70667 96.4234 8.36C95.714 9.27467 95.1074 10.0587 94.6034 10.712C94.118 11.3467 93.7447 11.8693 93.4834 12.28C93.1474 12.784 92.7367 13.4467 92.2514 14.268C91.7847 15.0707 91.234 16.0227 90.5994 17.124C90.5807 17.1427 90.3287 17.7213 89.8434 18.86C89.526 19.6253 89.2647 20.008 89.0594 20.008C88.742 19.9707 88.4527 19.84 88.1914 19.616C87.9487 19.4107 87.846 19.1773 87.8834 18.916C87.9767 18.1133 88.2287 17.0773 88.6394 15.808C89.05 14.5387 89.6287 13.0267 90.3754 11.272C91.7754 7.912 92.4754 6.064 92.4754 5.728C92.4754 5.48533 92.2887 5.364 91.9154 5.364C90.5527 5.364 88.3034 7.22133 85.1674 10.936C82.05 14.6507 80.3514 17.3573 80.0714 19.056C80.034 19.3173 79.8847 19.532 79.6234 19.7C79.362 19.868 79.0914 19.952 78.8114 19.952C78.5127 19.952 78.3634 19.8493 78.3634 19.644C78.3634 18.468 79.278 15.976 81.1074 12.168C82.47 9.368 83.2727 7.67867 83.5154 7.1C83.8887 6.18533 84.1874 5.35467 84.4114 4.608C84.6354 3.84267 84.7474 3.22667 84.7474 2.76C84.7474 2.21867 84.6167 1.87333 84.3554 1.724C84.094 1.57467 83.6647 1.5 83.0674 1.5C81.2194 1.5 79.054 2.07867 76.5714 3.236C75.8247 3.59067 75.1247 4.00133 74.4714 4.468C73.818 4.93467 73.202 5.46667 72.6234 6.064C71.3914 7.352 70.7754 8.51867 70.7754 9.564C70.7754 9.91867 70.822 10.2453 70.9154 10.544C71.0087 10.824 71.1954 11.076 71.4754 11.3C71.6994 11.4867 72.026 11.636 72.4554 11.748C72.9034 11.8413 73.3887 11.888 73.9114 11.888C74.7327 11.888 75.5727 11.776 76.4314 11.552C76.4687 11.5333 76.5247 11.524 76.5994 11.524C76.674 11.524 76.7114 11.552 76.7114 11.608C76.7114 11.7573 76.562 11.916 76.2634 12.084C75.9647 12.2333 75.582 12.364 75.1154 12.476C74.6674 12.588 74.1914 12.644 73.6874 12.644C72.7354 12.644 71.8394 12.4853 70.9994 12.168C70.0287 11.8133 69.5434 11.0853 69.5434 9.984C69.5434 9.144 69.814 8.25733 70.3554 7.324C70.8407 6.50267 71.6527 5.644 72.7914 4.748C73.4447 4.244 74.2287 3.74933 75.1434 3.264C76.0767 2.76 77.0567 2.312 78.0834 1.92C79.1287 1.528 80.1554 1.22 81.1634 0.996C82.19 0.753333 83.1234 0.631999 83.9634 0.631999C85.5687 0.631999 86.3714 1.22933 86.3714 2.424C86.3714 3.02133 86.138 3.92667 85.6714 5.14C85.2047 6.35333 84.5607 7.81867 83.7394 9.536C83.1607 10.7493 82.6007 11.9533 82.0594 13.148C81.518 14.324 80.9487 15.5187 80.3514 16.732C80.37 16.7693 81.3407 15.3507 83.2634 12.476C83.7487 11.7667 84.3274 11.0107 84.9994 10.208C85.69 9.38667 86.4927 8.53733 87.4074 7.66C89.0687 6.05467 90.338 5.00933 91.2154 4.524C91.7194 4.244 92.2234 4.104 92.7274 4.104C93.4927 4.104 93.8754 4.496 93.8754 5.28C93.8754 5.56 93.838 5.84 93.7634 6.12C93.2967 7.25867 92.746 8.65867 92.1114 10.32C91.4767 11.9627 90.7487 13.876 89.9274 16.06C89.89 16.172 89.8714 16.2467 89.8714 16.284C89.8714 16.3027 89.8807 16.312 89.8994 16.312C89.9927 16.312 90.7207 15.2387 92.0834 13.092C92.8487 11.86 93.502 10.8427 94.0434 10.04C94.6034 9.21867 95.042 8.62133 95.3594 8.248C97.954 5.03733 100.073 2.82533 101.715 1.612C102.387 1.108 103.218 0.856 104.207 0.856C105.047 0.856 105.467 1.11733 105.467 1.64C105.467 2.032 105.225 2.52667 104.739 3.124C102.966 5.364 101.389 8.388 100.007 12.196C99.3727 13.9693 98.8687 15.5 98.4954 16.788C98.1407 18.0573 97.9634 19.2333 97.9634 20.316C97.9634 21.2867 98.0567 21.94 98.2434 22.276C98.4487 22.612 98.738 22.78 99.1114 22.78C99.3727 22.78 99.6527 22.7333 99.9514 22.64C100.269 22.5653 100.614 22.4627 100.987 22.332C101.062 22.3133 101.118 22.2947 101.155 22.276C101.211 22.276 101.258 22.276 101.295 22.276C101.389 22.276 101.435 22.304 101.435 22.36C101.435 22.5467 101.165 22.78 100.623 23.06C100.045 23.396 99.4847 23.564 98.9434 23.564ZM108.586 19.308C108.213 19.308 107.867 19.1867 107.55 18.944C107.251 18.7013 107.074 18.468 107.018 18.244C106.962 17.9827 107.307 17.0493 108.054 15.444L107.41 16.368C107.13 16.7787 106.85 17.1427 106.57 17.46C106.29 17.7773 106.029 18.0573 105.786 18.3C105.077 18.972 104.479 19.252 103.994 19.14C102.874 18.8787 102.314 18.244 102.314 17.236C102.314 16.4333 102.697 15.4067 103.462 14.156C103.705 13.7827 104.013 13.4093 104.386 13.036C104.759 12.6627 105.189 12.2987 105.674 11.944C106.925 11.0293 108.129 10.572 109.286 10.572C109.995 10.572 110.667 10.7587 111.302 11.132C111.507 11.2813 111.61 11.44 111.61 11.608C111.61 11.7387 111.573 11.804 111.498 11.804C111.479 11.804 111.461 11.7947 111.442 11.776C111.05 11.3467 110.527 11.132 109.874 11.132C109.109 11.132 108.278 11.4213 107.382 12C106.486 12.5787 105.683 13.3533 104.974 14.324C103.966 15.724 103.462 16.8627 103.462 17.74C103.462 18.244 103.639 18.5613 103.994 18.692C104.442 18.8787 105.394 18.048 106.85 16.2C107.447 15.472 107.942 14.8187 108.334 14.24C108.745 13.6613 109.071 13.1667 109.314 12.756C109.426 12.5507 109.631 12.448 109.93 12.448C110.49 12.448 110.77 12.616 110.77 12.952C110.77 13.008 110.761 13.0453 110.742 13.064C109.118 15.64 108.306 17.3853 108.306 18.3C108.306 18.524 108.371 18.6453 108.502 18.664C108.894 18.776 109.547 18.4867 110.462 17.796C111.563 16.9747 112.599 15.8827 113.57 14.52C113.775 14.24 113.962 14.1 114.13 14.1C114.186 14.1 114.214 14.1187 114.214 14.156C114.214 14.2493 114.13 14.4267 113.962 14.688C113.57 15.304 113.131 15.8827 112.646 16.424C112.179 16.9653 111.657 17.4693 111.078 17.936C110.257 18.6267 109.585 19.056 109.062 19.224C108.931 19.28 108.773 19.308 108.586 19.308ZM118.676 19.308C118.303 19.308 117.957 19.1867 117.64 18.944C117.341 18.7013 117.164 18.468 117.108 18.244C117.052 17.9827 117.397 17.0493 118.144 15.444L117.5 16.368C117.22 16.7787 116.94 17.1427 116.66 17.46C116.38 17.7773 116.119 18.0573 115.876 18.3C115.167 18.972 114.569 19.252 114.084 19.14C112.964 18.8787 112.404 18.244 112.404 17.236C112.404 16.4333 112.787 15.4067 113.552 14.156C113.795 13.7827 114.103 13.4093 114.476 13.036C114.849 12.6627 115.279 12.2987 115.764 11.944C117.015 11.0293 118.219 10.572 119.376 10.572C120.085 10.572 120.757 10.7587 121.392 11.132C121.597 11.2813 121.7 11.44 121.7 11.608C121.7 11.7387 121.663 11.804 121.588 11.804C121.569 11.804 121.551 11.7947 121.532 11.776C121.14 11.3467 120.617 11.132 119.964 11.132C119.199 11.132 118.368 11.4213 117.472 12C116.576 12.5787 115.773 13.3533 115.064 14.324C114.056 15.724 113.552 16.8627 113.552 17.74C113.552 18.244 113.729 18.5613 114.084 18.692C114.532 18.8787 115.484 18.048 116.94 16.2C117.537 15.472 118.032 14.8187 118.424 14.24C118.835 13.6613 119.161 13.1667 119.404 12.756C119.516 12.5507 119.721 12.448 120.02 12.448C120.58 12.448 120.86 12.616 120.86 12.952C120.86 13.008 120.851 13.0453 120.832 13.064C119.208 15.64 118.396 17.3853 118.396 18.3C118.396 18.524 118.461 18.6453 118.592 18.664C118.984 18.776 119.637 18.4867 120.552 17.796C121.653 16.9747 122.689 15.8827 123.66 14.52C123.865 14.24 124.052 14.1 124.22 14.1C124.276 14.1 124.304 14.1187 124.304 14.156C124.304 14.2493 124.22 14.4267 124.052 14.688C123.66 15.304 123.221 15.8827 122.736 16.424C122.269 16.9653 121.747 17.4693 121.168 17.936C120.347 18.6267 119.675 19.056 119.152 19.224C119.021 19.28 118.863 19.308 118.676 19.308ZM122.634 20.148C122.559 20.148 122.522 20.12 122.522 20.064C122.522 19.8213 123.156 19.3733 124.426 18.72C124.743 18.5707 125.032 18.4213 125.294 18.272C125.555 18.104 125.779 17.9547 125.966 17.824C127.104 16.984 127.674 16.256 127.674 15.64C127.674 15.1733 127.216 14.94 126.302 14.94C124.174 14.9027 123.11 14.436 123.11 13.54C123.11 13.148 123.278 12.7747 123.614 12.42C124.006 11.972 124.659 11.5427 125.574 11.132C126.563 10.684 127.468 10.46 128.29 10.46C129.018 10.46 129.568 10.6373 129.942 10.992C130.11 11.16 130.194 11.3653 130.194 11.608C130.194 11.8693 130.11 12.1027 129.942 12.308C129.774 12.5133 129.587 12.616 129.382 12.616C129.008 12.616 128.803 12.364 128.766 11.86C128.766 11.5053 128.71 11.3 128.598 11.244C128.486 11.188 128.187 11.16 127.702 11.16C127.086 11.16 126.395 11.3653 125.63 11.776C124.715 12.2427 124.286 12.8027 124.342 13.456C124.379 13.8293 125.088 14.016 126.47 14.016C128.355 14.016 129.298 14.4733 129.298 15.388C129.298 16.3773 128.486 17.3667 126.862 18.356C125.835 18.9907 124.584 19.5507 123.11 20.036C122.904 20.1107 122.746 20.148 122.634 20.148Z" fill="#B99A45"/>
</svg>
